<?xml version="1.0" standalone="no"?>
<!DOCTYPE svg PUBLIC "-//W3C//DTD SVG 20010904//EN"
 "http://www.w3.org/TR/2001/REC-SVG-20010904/DTD/svg10.dtd">
<svg version="1.0" xmlns="http://www.w3.org/2000/svg"
 width="2003.000000pt" height="2003.000000pt" viewBox="0 0 2003.000000 2003.000000"
 preserveAspectRatio="xMidYMid meet">
<metadata>
Created by potrace 1.11, written by Peter Selinger 2001-2013
</metadata>
<g transform="translate(0.000000,2003.000000) scale(0.100000,-0.100000)"
fill="#000000" stroke="none">
<path d="M6895 10673 c-11 -2 -30 -6 -42 -9 l-23 -4 0 -664 c0 -596 2 -664 16
-670 29 -11 160 -6 172 6 7 7 12 36 12 66 l0 54 55 -50 c85 -78 132 -97 240
-97 70 1 100 5 137 22 74 34 137 98 174 178 43 93 57 168 57 300 0 230 -71
379 -211 443 -45 20 -70 25 -137 24 -92 0 -143 -17 -226 -77 l-49 -35 0 238
c0 130 -4 243 -9 251 -14 22 -111 36 -166 24z m456 -626 c75 -50 113 -191 91
-334 -21 -131 -85 -206 -176 -206 -52 0 -89 19 -148 79 l-48 48 0 152 0 153
33 37 c79 91 177 119 248 71z"/>
<path d="M11527 10658 c-15 -12 -17 -42 -19 -255 l-3 -243 -45 36 c-68 55
-124 76 -205 77 -86 0 -136 -13 -199 -55 -115 -76 -175 -228 -176 -438 0 -235
74 -387 219 -453 36 -17 66 -21 136 -22 79 0 97 4 147 28 31 15 80 48 107 73
l51 46 0 -50 c0 -71 14 -82 105 -82 54 0 78 4 89 16 14 14 16 87 16 659 l0
644 -22 15 c-28 20 -176 22 -201 4z m-142 -606 c17 -11 51 -40 78 -67 l47 -48
0 -144 0 -145 -37 -44 c-63 -78 -144 -113 -215 -93 -79 21 -123 98 -135 236
-11 133 31 261 100 304 42 25 121 25 162 1z"/>
<path d="M8267 10583 c-25 -3 -42 -12 -52 -26 -20 -31 -415 -1175 -415 -1202
0 -13 7 -26 16 -29 30 -11 190 -6 206 7 9 6 35 72 59 145 l43 132 241 0 241 0
44 -136 c28 -86 51 -139 62 -145 10 -5 66 -8 125 -7 l108 3 3 30 c3 30 -384
1158 -413 1201 -19 29 -133 41 -268 27z m198 -536 c41 -127 75 -234 75 -239 0
-4 -81 -8 -180 -8 -99 0 -180 1 -180 3 0 3 168 506 176 527 8 21 22 -16 109
-283z"/>
<path d="M4750 10553 c-20 -26 -20 -30 -18 -609 3 -545 4 -584 21 -601 16 -16
41 -18 265 -18 202 1 259 4 312 18 190 51 291 157 307 320 14 156 -72 291
-210 328 l-40 11 49 28 c86 49 124 124 124 244 0 122 -57 208 -170 260 -81 37
-160 46 -402 46 l-217 0 -21 -27z m480 -181 c53 -26 80 -74 80 -142 0 -63 -22
-106 -73 -144 -24 -18 -46 -21 -143 -25 l-114 -3 0 166 0 166 108 0 c82 0 115
-4 142 -18z m2 -503 c128 -28 186 -164 118 -277 -35 -57 -87 -75 -237 -80
l-133 -5 0 187 0 186 100 0 c54 0 123 -5 152 -11z"/>
<path d="M6130 10274 c-145 -22 -254 -62 -284 -105 -30 -43 -13 -159 24 -159
9 0 51 16 92 35 83 38 190 59 246 49 90 -16 125 -60 126 -159 l1 -60 -140 -6
c-239 -11 -353 -67 -395 -194 -17 -52 -16 -161 3 -206 76 -183 363 -226 530
-80 40 36 44 33 49 -29 l3 -35 70 -3 c38 -2 80 0 92 3 l23 5 0 346 c0 322 -1
349 -21 407 -38 115 -117 169 -275 187 -90 10 -99 10 -144 4z m208 -625 l3
-77 -43 -37 c-24 -20 -58 -43 -77 -51 -68 -28 -151 -11 -185 38 -19 27 -21 93
-3 127 26 52 115 81 242 77 l60 -1 3 -76z"/>
<path d="M9430 10269 c-114 -13 -190 -49 -253 -118 -81 -90 -120 -210 -120
-372 0 -256 91 -406 278 -459 118 -34 318 -3 388 60 31 28 32 30 32 114 0 114
-7 120 -85 68 -91 -61 -152 -74 -232 -50 -47 14 -103 72 -118 125 -33 114 -20
288 28 363 62 95 193 107 309 28 43 -29 77 -36 88 -17 4 5 7 44 7 86 -1 63 -4
79 -22 98 -50 53 -187 87 -300 74z"/>
<path d="M10230 10274 c-145 -22 -254 -62 -284 -105 -30 -43 -13 -159 24 -159
9 0 51 16 92 35 83 38 190 59 246 49 90 -16 125 -60 126 -159 l1 -60 -140 -6
c-239 -11 -353 -67 -395 -194 -17 -52 -16 -161 3 -206 76 -183 363 -226 530
-80 40 36 44 33 49 -29 l3 -35 70 -3 c38 -2 80 0 92 3 l23 5 0 346 c0 322 -1
349 -21 407 -38 115 -117 169 -275 187 -90 10 -99 10 -144 4z m208 -625 l3
-77 -43 -37 c-24 -20 -58 -43 -77 -51 -68 -28 -151 -11 -185 38 -19 27 -21 93
-3 127 26 52 115 81 242 77 l60 -1 3 -76z"/>
<path d="M12300 10269 c-223 -39 -350 -217 -350 -490 1 -264 95 -408 300 -460
88 -22 278 -17 375 10 122 34 125 37 125 127 0 87 -8 95 -74 70 -171 -66 -351
-58 -424 17 -34 35 -62 107 -62 159 l0 28 280 0 c347 0 325 -11 318 154 -6
122 -21 173 -75 250 -75 107 -250 164 -413 135z m147 -170 c64 -24 112 -100
113 -176 l0 -43 -185 0 c-172 0 -185 1 -185 18 0 34 30 119 52 147 42 54 139
79 205 54z"/>
<path d="M13430 10264 c-61 -17 -131 -58 -175 -104 -16 -16 -32 -30 -37 -30
-4 0 -8 25 -8 55 0 50 -2 56 -26 65 -14 6 -47 10 -74 10 -27 0 -60 -4 -74 -10
l-26 -10 0 -449 c0 -522 -13 -471 124 -471 64 0 88 4 100 16 14 13 16 56 16
310 l0 295 53 53 c86 86 167 98 225 31 45 -51 52 -105 52 -410 0 -323 -11
-299 131 -293 66 2 92 7 99 18 6 9 10 142 10 309 l0 295 53 52 c88 85 168 95
225 29 45 -51 52 -104 52 -414 l0 -279 23 -6 c12 -3 59 -6 104 -6 61 0 86 4
97 16 14 13 16 53 16 282 0 408 -17 500 -106 582 -52 47 -77 59 -160 71 -106
15 -218 -28 -303 -115 -19 -20 -38 -36 -41 -36 -4 0 -16 17 -28 38 -51 91
-199 140 -322 106z"/>
<path d="M14523 10250 c-16 -7 -23 -18 -23 -38 0 -34 303 -848 325 -872 8 -9
15 -21 15 -26 0 -5 -27 -76 -59 -158 -33 -82 -57 -154 -54 -161 2 -7 14 -16
26 -19 35 -9 149 -7 189 4 33 9 39 17 58 68 58 154 383 1122 387 1154 5 34 3
39 -21 48 -39 14 -169 13 -189 -2 -9 -8 -56 -141 -113 -320 -54 -170 -100
-308 -103 -308 -3 0 -53 136 -111 302 -58 167 -113 310 -122 320 -15 15 -34
18 -100 17 -46 0 -93 -4 -105 -9z"/>
</g>
</svg>
